<svg width="25" height="24" viewBox="0 0 25 24" fill="none" xmlns="http://www.w3.org/2000/svg">
<path d="M23.1022 10.0046C23.0605 9.77396 22.9391 9.56533 22.7593 9.4151C22.5795 9.26486 22.3526 9.18256 22.1182 9.18255H12.7002C12.435 9.18255 12.1807 9.28791 11.9931 9.47545C11.8056 9.66298 11.7002 9.91734 11.7002 10.1826V14.0506C11.7002 14.3158 11.8056 14.5701 11.9931 14.7577C12.1807 14.9452 12.435 15.0506 12.7002 15.0506H16.6622C16.3801 15.5269 15.9934 15.9328 15.5312 16.2376C14.686 16.7734 13.7008 17.0466 12.7002 17.0226C11.6628 17.0107 10.6555 16.6723 9.8215 16.0553C8.98746 15.4383 8.36908 14.5741 8.05423 13.5856V13.5836C7.70367 12.557 7.70367 11.4431 8.05423 10.4166V10.4146C8.36992 9.42661 8.98854 8.56309 9.82243 7.94638C10.6563 7.32967 11.6631 6.99107 12.7002 6.97855C13.2765 6.96539 13.8497 7.06612 14.387 7.27496C14.9243 7.4838 15.4151 7.79664 15.8312 8.19555C16.0201 8.37649 16.2723 8.47625 16.5338 8.47344C16.7953 8.47064 17.0453 8.3655 17.2302 8.18055L20.0982 5.31255C20.1933 5.21761 20.2682 5.10451 20.3185 4.97998C20.3689 4.85545 20.3936 4.72205 20.3913 4.58774C20.389 4.45344 20.3596 4.32098 20.305 4.19828C20.2503 4.07557 20.1715 3.96513 20.0732 3.87355C18.0774 2.00185 15.4362 0.972669 12.7002 1.00055C10.6601 0.994589 8.65889 1.55869 6.92221 2.62925C5.18554 3.6998 3.78248 5.23424 2.87123 7.05955L2.87023 7.06155C2.097 8.59288 1.69614 10.2851 1.70023 12.0006C1.70338 13.7155 2.10385 15.4064 2.87023 16.9406L2.87123 16.9416C3.78248 18.7669 5.18554 20.3013 6.92221 21.3719C8.65889 22.4424 10.6601 23.0065 12.7002 23.0006C15.3856 23.0682 17.9953 22.1069 19.9952 20.3136L19.9962 20.3126C21.0794 19.2694 21.9328 18.0115 22.5018 16.6194C23.0707 15.2273 23.3427 13.7318 23.3002 12.2286C23.3007 11.4828 23.2344 10.7385 23.1022 10.0046ZM12.7002 3.00055C14.5713 2.98355 16.398 3.57024 17.9092 4.67355L16.4552 6.12655C15.353 5.36354 14.0407 4.96234 12.7002 4.97855C11.4765 4.98501 10.2765 5.31729 9.22379 5.94121C8.17103 6.56513 7.30344 7.45819 6.71023 8.52855L5.64223 7.70055L5.05723 7.24655C5.86175 5.94428 6.98685 4.87013 8.32496 4.12675C9.66308 3.38337 11.1695 2.99562 12.7002 3.00055ZM4.18023 14.9036C3.54108 13.021 3.54108 10.9801 4.18023 9.09755L5.96223 10.4796C5.73423 11.4807 5.73423 12.5204 5.96223 13.5216L4.18023 14.9036ZM12.7002 21.0006C11.1693 21.0057 9.6627 20.618 8.3244 19.8746C6.98609 19.1312 5.86084 18.057 5.05623 16.7546L5.43523 16.4606L6.71123 15.4706C7.3041 16.5411 8.17142 17.4345 9.224 18.0588C10.2766 18.6831 11.4765 19.0157 12.7002 19.0226C13.8458 19.0354 14.9783 18.7785 16.0062 18.2726L17.6972 19.5856C16.2093 20.5435 14.4695 21.0362 12.7002 21.0006ZM19.2262 18.2406L19.0432 18.0976L17.6662 17.0286C18.3889 16.2484 18.8745 15.2786 19.0662 14.2326C19.0929 14.0882 19.0876 13.9397 19.0504 13.7977C19.0133 13.6557 18.9454 13.5236 18.8515 13.4108C18.7575 13.2979 18.6399 13.2072 18.507 13.1449C18.374 13.0827 18.229 13.0504 18.0822 13.0506H13.7002V11.1826H21.2492C21.2832 11.5279 21.3002 11.8766 21.3002 12.2286C21.3587 14.4171 20.6219 16.5537 19.2262 18.2406Z" fill="black"/>
</svg>
